<?xml version="1.0" encoding="UTF-8"?><svg id="Camada_2" xmlns="http://www.w3.org/2000/svg" viewBox="0 0 1198.64 244.78"><defs><style>.cls-1{fill:#6c6c6b;}</style></defs><g id="Camada_1-2"><path d="m109.47,141.77c0-19.72-11.9-28.56-24.82-28.56-13.6,0-25.84,8.84-25.84,28.56v99.61H0v-119.77c0-31.49,25.52-57.01,57.01-57.01h1.81v20.4c9.52-14.28,25.5-23.8,47.94-23.8,20.06,0,37.4,8.16,48.62,26.18,11.22-15.3,30.6-26.18,57.11-26.18,37.74,0,64.93,23.8,64.93,78.87v101.31h-58.81v-99.61c0-19.72-11.56-28.56-24.48-28.56-14.28,0-26.18,8.84-26.18,28.56v99.61h-58.47v-99.61Z"/><path d="m298.83,152.99c0-60.17,47.94-91.79,94.51-91.79s94.17,31.62,94.17,91.79-47.94,91.79-94.17,91.79-94.51-31.62-94.51-91.79Zm94.51,39.1c20.06,0,36.38-15.64,36.38-39.1s-16.32-39.1-36.38-39.1-36.72,15.64-36.72,39.1,16.32,39.1,36.72,39.1Z"/><path d="m500.42,152.99c0-60.17,47.94-91.79,94.51-91.79s94.17,31.62,94.17,91.79-47.94,91.79-94.17,91.79-94.51-31.62-94.51-91.79Zm94.51,39.1c20.06,0,36.38-15.64,36.38-39.1s-16.32-39.1-36.38-39.1-36.72,15.64-36.72,39.1,16.32,39.1,36.72,39.1Z"/><path d="m835.63,241.38v-16.66h-1.02c-1.36,3.06-18.02,20.06-48.96,20.06-39.44,0-83.63-29.92-83.63-91.79s44.2-91.79,83.63-91.79c30.94,0,47.6,17,48.96,20.06h1.02V0h58.81v241.38h-58.81Zm-37.4-48.62c21.08,0,38.76-14.62,38.76-39.78s-17.68-39.78-38.76-39.78-38.42,14.96-38.42,39.78,18.02,39.78,38.42,39.78Z"/><path class="cls-1" d="m983.17,0v81.25h1.02c1.36-3.06,18.02-20.06,48.96-20.06,39.44,0,83.63,29.92,83.63,91.79s-44.2,91.79-83.63,91.79c-30.94,0-47.6-17-48.96-20.06h-1.02v16.66h-58.81V0h58.81Zm37.4,192.76c20.4,0,38.42-14.96,38.42-39.78s-18.02-39.78-38.42-39.78-38.76,14.62-38.76,39.78,17.68,39.78,38.76,39.78Z"/><circle class="cls-1" cx="1167.93" cy="214.06" r="30.71"/></g></svg>